<svg width="113" height="18" viewBox="0 0 113 18" fill="none" xmlns="http://www.w3.org/2000/svg">
<path d="M9.67914 2.89995V6.01995H4.03914V8.49995H8.19914V11.48H4.03914V17H0.119141V2.89995H9.67914Z" fill="black"/>
<path d="M22.8101 5.77995V17H18.8701V15.4C18.5367 15.9066 18.0767 16.32 17.4901 16.64C16.9034 16.9466 16.2301 17.1 15.4701 17.1C14.1634 17.1 13.1301 16.6733 12.3701 15.82C11.6234 14.9533 11.2501 13.78 11.2501 12.3V5.77995H15.1501V11.8C15.1501 12.44 15.3167 12.9466 15.6501 13.32C15.9967 13.68 16.4501 13.86 17.0101 13.86C17.5834 13.86 18.0367 13.68 18.3701 13.32C18.7034 12.9466 18.8701 12.44 18.8701 11.8V5.77995H22.8101Z" fill="black"/>
<path d="M32.381 5.67995C33.6743 5.67995 34.701 6.11328 35.461 6.97995C36.221 7.83329 36.601 8.99328 36.601 10.46V17H32.681V10.98C32.681 10.34 32.5143 9.83995 32.181 9.47995C31.8477 9.10662 31.401 8.91995 30.841 8.91995C30.2544 8.91995 29.7943 9.10662 29.461 9.47995C29.1277 9.83995 28.961 10.34 28.961 10.98V17H25.041V5.77995H28.961V7.37995C29.3077 6.87328 29.7743 6.46662 30.361 6.15995C30.9477 5.83995 31.621 5.67995 32.381 5.67995Z" fill="black"/>
<path d="M38.112 11.38C38.112 10.22 38.3186 9.20662 38.732 8.33995C39.1586 7.47328 39.7386 6.80662 40.472 6.33995C41.2053 5.87329 42.0186 5.63995 42.912 5.63995C43.632 5.63995 44.272 5.79329 44.832 6.09995C45.4053 6.39329 45.852 6.79995 46.172 7.31995V2.19995H50.112V17H46.172V15.44C45.8653 15.96 45.432 16.3733 44.872 16.68C44.312 16.9866 43.652 17.14 42.892 17.14C41.9986 17.14 41.1853 16.9066 40.452 16.44C39.732 15.9733 39.1586 15.3066 38.732 14.44C38.3186 13.56 38.112 12.54 38.112 11.38ZM46.192 11.38C46.192 10.66 45.992 10.0933 45.592 9.67995C45.2053 9.26662 44.7253 9.05995 44.152 9.05995C43.5653 9.05995 43.0786 9.26662 42.692 9.67995C42.3053 10.08 42.112 10.6466 42.112 11.38C42.112 12.1 42.3053 12.6733 42.692 13.1C43.0786 13.5133 43.5653 13.72 44.152 13.72C44.7253 13.72 45.2053 13.5133 45.592 13.1C45.992 12.6866 46.192 12.1133 46.192 11.38Z" fill="black"/>
<path d="M56.2657 7.75995C56.7057 7.11995 57.239 6.61328 57.8657 6.23995C58.4924 5.86662 59.1657 5.67995 59.8857 5.67995V9.85995H58.7857C57.9324 9.85995 57.299 10.0266 56.8857 10.36C56.4724 10.6933 56.2657 11.2733 56.2657 12.1V17H52.3457V5.77995H56.2657V7.75995Z" fill="black"/>
<path d="M60.651 11.38C60.651 10.22 60.8577 9.20662 61.271 8.33995C61.6977 7.47328 62.271 6.80662 62.991 6.33995C63.7243 5.87329 64.5377 5.63995 65.431 5.63995C66.2043 5.63995 66.871 5.79329 67.431 6.09995C67.991 6.40662 68.4244 6.81995 68.731 7.33995V5.77995H72.651V17H68.731V15.44C68.4244 15.96 67.9844 16.3733 67.411 16.68C66.851 16.9866 66.191 17.14 65.431 17.14C64.5377 17.14 63.7243 16.9066 62.991 16.44C62.271 15.9733 61.6977 15.3066 61.271 14.44C60.8577 13.56 60.651 12.54 60.651 11.38ZM68.731 11.38C68.731 10.66 68.531 10.0933 68.131 9.67995C67.7444 9.26662 67.2644 9.05995 66.691 9.05995C66.1044 9.05995 65.6177 9.26662 65.231 9.67995C64.8444 10.08 64.651 10.6466 64.651 11.38C64.651 12.1 64.8444 12.6733 65.231 13.1C65.6177 13.5133 66.1044 13.72 66.691 13.72C67.2644 13.72 67.7444 13.5133 68.131 13.1C68.531 12.6866 68.731 12.1133 68.731 11.38Z" fill="black"/>
<path d="M76.8648 4.73995C76.1714 4.73995 75.6114 4.55328 75.1848 4.17995C74.7714 3.79329 74.5648 3.31329 74.5648 2.73995C74.5648 2.15328 74.7714 1.66662 75.1848 1.27995C75.6114 0.893285 76.1714 0.699951 76.8648 0.699951C77.5448 0.699951 78.0914 0.893285 78.5048 1.27995C78.9314 1.66662 79.1448 2.15328 79.1448 2.73995C79.1448 3.31329 78.9314 3.79329 78.5048 4.17995C78.0914 4.55328 77.5448 4.73995 76.8648 4.73995ZM78.8048 5.77995V17H74.8848V5.77995H78.8048Z" fill="black"/>
<path d="M85.8171 17.14C84.8038 17.14 83.8971 16.9733 83.0971 16.64C82.3104 16.2933 81.6838 15.8266 81.2171 15.24C80.7638 14.64 80.5104 13.9666 80.4571 13.22H84.2571C84.3104 13.58 84.4771 13.86 84.7571 14.06C85.0371 14.26 85.3838 14.36 85.7971 14.36C86.1171 14.36 86.3704 14.2933 86.5571 14.16C86.7438 14.0266 86.8371 13.8533 86.8371 13.64C86.8371 13.36 86.6838 13.1533 86.3771 13.02C86.0704 12.8866 85.5638 12.74 84.8571 12.58C84.0571 12.42 83.3904 12.24 82.8571 12.04C82.3238 11.84 81.8571 11.5133 81.4571 11.06C81.0704 10.6066 80.8771 9.99328 80.8771 9.21995C80.8771 8.55329 81.0571 7.95329 81.4171 7.41995C81.7771 6.87328 82.3038 6.43995 82.9971 6.11995C83.7038 5.79995 84.5504 5.63995 85.5371 5.63995C87.0038 5.63995 88.1571 5.99995 88.9971 6.71995C89.8371 7.43995 90.3238 8.38662 90.4571 9.55995H86.9171C86.8504 9.19995 86.6904 8.92662 86.4371 8.73995C86.1971 8.53995 85.8704 8.43995 85.4571 8.43995C85.1371 8.43995 84.8904 8.49995 84.7171 8.61995C84.5571 8.73995 84.4771 8.90662 84.4771 9.11995C84.4771 9.38662 84.6304 9.59329 84.9371 9.73995C85.2438 9.87329 85.7371 10.0133 86.4171 10.16C87.2304 10.3333 87.9038 10.5266 88.4371 10.74C88.9838 10.9533 89.4571 11.3 89.8571 11.78C90.2704 12.2466 90.4771 12.8866 90.4771 13.7C90.4771 14.3533 90.2838 14.94 89.8971 15.46C89.5238 15.98 88.9838 16.3933 88.2771 16.7C87.5838 16.9933 86.7638 17.14 85.8171 17.14Z" fill="black"/>
<path d="M103.124 11.26C103.124 11.5666 103.104 11.8733 103.064 12.18H95.6443C95.6843 12.7933 95.851 13.2533 96.1443 13.56C96.451 13.8533 96.8376 14 97.3043 14C97.9576 14 98.4243 13.7066 98.7043 13.12H102.884C102.711 13.8933 102.371 14.5866 101.864 15.2C101.371 15.8 100.744 16.2733 99.9843 16.62C99.2243 16.9666 98.3843 17.14 97.4643 17.14C96.3576 17.14 95.371 16.9066 94.5043 16.44C93.651 15.9733 92.9776 15.3066 92.4843 14.44C92.0043 13.5733 91.7643 12.5533 91.7643 11.38C91.7643 10.2066 92.0043 9.19328 92.4843 8.33995C92.9643 7.47328 93.631 6.80662 94.4843 6.33995C95.351 5.87329 96.3443 5.63995 97.4643 5.63995C98.571 5.63995 99.551 5.86662 100.404 6.31995C101.258 6.77329 101.924 7.42662 102.404 8.27995C102.884 9.11995 103.124 10.1133 103.124 11.26ZM99.1243 10.28C99.1243 9.79995 98.9643 9.42662 98.6443 9.15995C98.3243 8.87995 97.9243 8.73995 97.4443 8.73995C96.9643 8.73995 96.571 8.87328 96.2643 9.13995C95.9576 9.39328 95.7576 9.77329 95.6643 10.28H99.1243Z" fill="black"/>
<path d="M108.649 7.75995C109.089 7.11995 109.622 6.61328 110.249 6.23995C110.875 5.86662 111.549 5.67995 112.269 5.67995V9.85995H111.169C110.315 9.85995 109.682 10.0266 109.269 10.36C108.855 10.6933 108.649 11.2733 108.649 12.1V17H104.729V5.77995H108.649V7.75995Z" fill="black"/>
</svg>
